<svg xmlns="http://www.w3.org/2000/svg" width="71" height="70" viewBox="0 0 71 70">
    <path fill="#676767" fill-rule="evenodd" d="M5.14 1h34.5a4.14 4.14 0 0 1 4.14 4.14v6.9a4.14 4.14 0 0 1-4.14 4.14H5.14A4.14 4.14 0 0 1 1 12.04v-6.9A4.14 4.14 0 0 1 5.14 1zm53.82 0h6.9A4.14 4.14 0 0 1 70 5.14v6.9a4.14 4.14 0 0 1-4.14 4.14h-6.9a4.14 4.14 0 0 1-4.14-4.14v-6.9A4.14 4.14 0 0 1 58.96 1zM5.14 27.22h60.72A4.14 4.14 0 0 1 70 31.36v6.9a4.14 4.14 0 0 1-4.14 4.14H5.14A4.14 4.14 0 0 1 1 38.26v-6.9a4.14 4.14 0 0 1 4.14-4.14zm0 26.22h20.7a4.14 4.14 0 0 1 4.14 4.14v6.9a4.14 4.14 0 0 1-4.14 4.14H5.14A4.14 4.14 0 0 1 1 64.48v-6.9a4.14 4.14 0 0 1 4.14-4.14zm40.02 0h20.7A4.14 4.14 0 0 1 70 57.58v6.9a4.14 4.14 0 0 1-4.14 4.14h-20.7a4.14 4.14 0 0 1-4.14-4.14v-6.9a4.14 4.14 0 0 1 4.14-4.14z"/>
</svg>
